<svg width="240" height="58" viewBox="0 0 240 58" fill="none" xmlns="http://www.w3.org/2000/svg">
<g clip-path="url(#clip0_314_770)">
<path d="M233.441 34.1314C224.524 39.1745 213.658 30.6992 206.227 27.7126C200.657 25.475 194.552 24.3489 188.295 25.475C182.497 26.5179 177.77 29.343 173.068 31.9379C169.394 33.965 165.842 35.7423 161.267 35.757C159.785 35.757 158.46 35.6003 157.398 35.1058C157.364 35.0911 156.998 34.9295 156.74 34.5672C156.506 34.244 156.267 33.0543 156.092 32.3884C154.693 27.0712 148.612 24.5741 141.971 26.9977C137.512 28.6232 133.663 31.2525 130.203 33.8817C125.257 37.6371 119.931 43.537 112.9 45.4612C112.198 37.3874 112.315 29.2891 113.207 21.2251C113.534 18.2483 107.74 16.4269 105.167 18.7183C99.1835 24.0404 92.8246 29.152 86.3537 34.1363C82.972 36.7411 79.5465 39.3165 76.043 41.8282C74.8444 42.6899 73.6895 43.4929 72.2082 44.0755C71.7794 44.242 69.9863 44.7463 70.0837 44.7953C69.1384 44.3399 71.2239 38.1414 71.5699 37.0153C72.5006 34.0139 73.7334 31.0566 75.278 28.1973C75.5363 27.7175 75.8189 27.2474 76.0918 26.7774C80.9157 21.9987 85.2086 16.9165 89.0434 11.5993C91.1825 8.63219 85.8908 5.24404 82.6455 7.88308C76.2964 13.0485 71.1411 18.8848 67.2868 25.2694C57.6924 33.916 45.9833 41.2945 33.173 46.9153C25.9663 50.0782 9.82303 55.748 8.02013 45.3534C7.31847 41.2945 8.93133 37.0544 10.6027 33.2403C12.3958 29.1422 14.8322 25.2302 17.824 21.5532C21.0838 17.5432 25.0015 13.7683 29.3626 10.4046C33.9478 6.86467 39.1811 3.31985 44.9065 0.901143C45.6471 0.587788 44.9991 -0.210287 44.2487 0.054106C38.4209 2.13008 32.9294 4.16689 27.8228 7.17803C22.7259 10.1843 18.2723 13.6018 14.3741 17.4943C6.95301 24.9071 0.106869 34.8218 -0.000330176 44.3252C-0.0539299 49.0305 2.30933 53.7308 7.82523 56.2719C13.4434 58.862 20.733 58.1863 26.6339 56.5706C39.4149 53.0747 51.241 46.2201 61.0936 39.3067C61.1764 39.2479 61.2544 39.1892 61.3372 39.1304C60.3968 42.7634 59.3833 46.9398 63.1158 49.9167C71.2239 56.3747 82.1095 47.7036 87.6596 43.4978C92.7515 39.6396 97.6681 35.6737 102.502 31.6442C102.005 37.8329 101.961 44.0364 102.351 50.2496C102.497 52.5655 104.768 54.3134 107.872 54.4065C118.401 54.7296 126.31 49.476 133.068 44.0413C136.299 41.4463 139.451 38.6702 143.194 36.4718C143.803 36.1144 144.441 35.7912 145.094 35.4779C145.226 35.8647 145.362 36.2221 145.435 36.4424C145.781 37.4755 146.346 38.4939 147.092 39.3997C152.861 46.4159 166.807 45.6031 174.969 41.7694C179.846 39.478 184.037 36.0899 189.411 34.4203C194.849 32.7311 199.878 34.8756 204.419 37.0691C210.072 39.7963 215.329 42.6605 222.131 43.4635C229.017 44.2714 235.419 43.2187 239.395 38.6261C241.671 36.0018 236.969 32.1436 233.436 34.1412L233.441 34.1314Z" fill="black"/>
</g>
<defs>
<clipPath id="clip0_314_770">
<rect width="240" height="58" fill="white"/>
</clipPath>
</defs>
</svg>
