<svg width="151" height="35" viewBox="0 0 151 35" fill="none" xmlns="http://www.w3.org/2000/svg">
<path d="M150.029 12.9188C148.005 9.4019 144.829 11.1477 148.043 7.23866C151.256 3.32964 149.548 1.57121 148.296 2.01398C147.043 2.45675 142.856 5.03746 142.856 5.03746C142.856 5.03746 142.312 -1.0348 139.592 0.154351C136.872 1.3435 137.404 7.0236 137.062 7.30191C136.72 7.58022 131.61 9.59166 132.217 10.7302C132.811 11.8688 137.884 12.9694 137.884 12.9694C137.884 12.9694 136.417 18.3711 139.086 19.0416C141.755 19.7121 142.717 12.729 143.792 12.9567C144.867 13.1844 152.053 16.3977 150.029 12.8935V12.9188ZM139.086 2.3682C139.554 1.38145 140.642 3.07663 139.883 6.49228C139.883 6.49228 138.618 3.35494 139.086 2.3682ZM139.605 16.7139C139.073 16.5242 139.693 13.488 139.693 13.488C139.693 13.488 140.06 12.5772 140.263 12.9314C140.452 13.2856 140.149 16.9037 139.617 16.7139H139.605ZM144.02 6.82119C144.159 6.63143 143.906 6.90974 144.172 6.69469C144.804 6.20131 145.335 5.8218 146.208 5.34108C147.461 4.6453 147.84 4.83505 147.448 5.34108C147.056 5.8471 145.879 6.11276 145.639 6.32782C145.601 6.36577 143.931 6.9477 144.02 6.82119ZM148.599 13.2097C148.194 13.6904 147.284 12.5519 147.284 12.5519C147.284 12.5519 149.004 12.729 148.599 13.2097Z" fill="white"/>
<path d="M0.221201 18.447C0.43626 17.0428 0.790476 16.4103 0.942282 15.9928C2.29589 12.2482 4.45914 9.2374 8.2037 7.51693C12.2139 5.66995 18.5771 7.13741 20.6771 10.4772C21.1326 11.1982 21.5121 11.9573 21.4741 12.8808C21.4235 14.4621 20.8795 15.2464 19.6271 15.3223C18.1091 15.4235 17.0717 14.6265 16.9199 13.1464C16.7808 11.7296 16.4392 10.4519 15.1868 9.62957C13.4663 8.50367 11.6953 8.69343 9.96212 10.3C5.54708 14.3862 4.20612 24.3042 11.1133 28.8584C14.4784 31.0723 18.147 30.6674 21.7271 27.644C22.1193 27.315 22.4482 26.556 23.0681 27.0494C23.5488 27.4289 23.0428 28.0108 22.891 28.4409C21.6133 31.9325 17.679 34.5006 13.8711 34.7915C10.6326 35.0445 7.81153 34.3234 5.30672 32.2867C3.11818 30.5156 1.75192 28.2006 0.853728 25.5819C0.727223 25.2024 0.322405 24.5699 0.1959 23.2922C-0.107714 21.6602 -0.0191598 20.7874 0.1959 18.4597L0.221201 18.447Z" fill="white"/>
<path d="M89.1547 13.4753C92.0138 13.8549 94.8475 14.1458 96.9981 16.3217C97.4029 16.7265 97.6939 17.182 97.9342 17.688C98.6932 19.3199 98.1999 20.9518 96.7577 21.5337C95.1131 22.1916 93.0258 21.2934 92.5198 19.6994C92.4439 19.4591 92.4059 19.206 92.3553 18.9657C91.7228 16.3597 90.9764 15.8536 88.2439 16.2711C87.2445 16.4229 86.3843 16.9289 86.1692 17.9916C85.9541 19.0163 86.7005 19.5729 87.4975 19.9651C89.9897 21.1922 92.5071 22.3434 94.9993 23.5831C96.1758 24.1651 97.2384 24.962 97.9975 26.0373C99.7432 28.5168 99.1107 31.8439 96.4288 33.2102C91.4192 35.753 86.359 35.5505 81.4379 32.8307C80.1981 32.1476 79.5277 30.3765 79.9072 29.3391C80.4006 28.0108 81.7415 27.3024 83.3608 27.4922C84.765 27.6566 85.4228 28.5927 85.4861 29.8452C85.5746 31.3759 86.4981 32.0717 87.7505 32.2741C89.3445 32.5271 91.0397 32.5777 92.2541 31.1861C92.7854 30.5789 92.5704 29.9084 92.0517 29.2759C91.1788 28.2385 89.8885 28.0235 88.7626 27.5048C86.8017 26.6066 84.7144 26.05 82.8927 24.7596C79.2494 22.1789 79.5024 17.1693 83.5758 14.9808C85.3469 14.032 87.2825 13.7663 89.18 13.5133L89.1547 13.4753Z" fill="white"/>
<path d="M133.799 20.509C133.647 22.9126 131.585 24.2409 129.308 25.3415C127.347 26.2903 125.222 26.7584 123.097 27.2138C122.236 27.4036 121.933 27.6692 122.553 28.5927C124.324 31.2114 127.98 32.1475 130.839 30.5915C131.459 30.25 132.041 29.8451 132.585 29.4024C133.128 28.9596 133.647 28.8331 134.216 29.3012C134.836 29.8072 134.621 30.2753 134.242 30.8698C132.825 33.071 130.674 34.0831 128.258 34.6017C123.16 35.7023 119.352 34.2222 116.493 30.1867C112.571 24.6331 114.988 16.1825 122.553 14.1964C125.589 13.3994 128.663 13.4247 131.395 15.3729C132.977 16.4988 133.799 18.0422 133.799 20.5217V20.509ZM121.022 23.1783C121.022 23.5831 121.06 23.9879 121.022 24.3801C120.883 25.5187 121.376 25.6705 122.312 25.2783C123.527 24.7723 124.678 24.0891 125.627 23.2162C126.765 22.1916 127.448 20.8126 127.385 19.206C127.335 17.903 126.221 16.2205 125.159 16.0687C123.881 15.8916 123.046 16.6759 122.363 17.7133C121.275 19.3831 120.959 21.2301 121.022 23.1656V23.1783Z" fill="white"/>
<path d="M36.6672 13.8169C39.2226 13.6778 41.4744 14.3735 43.296 16.347C45.396 18.6368 45.0924 22.2422 42.5623 24.0386C40.1208 25.7717 37.287 26.4801 34.4407 27.138C32.8214 27.5175 32.7455 27.8084 33.7955 29.0355C35.9334 31.5024 40.3105 32.6662 43.2834 29.491C43.8021 28.9343 44.3966 28.7699 45.0039 29.3265C45.6743 29.9464 45.4846 30.5156 44.9533 31.1608C40.5635 36.4361 30.8226 36.4361 26.9895 29.6681C25.0286 26.1892 25.1678 22.5711 26.9262 19.0922C28.4696 16.0308 32.581 13.4374 36.6672 13.8169ZM31.784 22.8368C31.784 25.8476 31.8599 25.8982 34.1497 24.7596C34.5545 24.5572 34.972 24.3675 35.3641 24.1398C37.9322 22.6344 38.9316 19.7121 37.6792 17.4223C36.819 15.8537 35.4147 15.6133 34.0991 16.8025C32.1509 18.5609 32.1003 20.9771 31.784 22.8368Z" fill="white"/>
<path d="M68.9891 13.7663C72.0505 13.8296 74.4162 14.2471 76.2632 16.2332C78.4138 18.5356 78.0595 22.1916 75.5041 24.0133C72.974 25.8223 70.0897 26.6193 67.1042 27.1506C66.6994 27.2265 66.1933 27.2518 66.0415 27.606C65.8771 27.9856 66.2566 28.3398 66.5222 28.6434C69.3939 32.0211 72.9614 32.3626 76.3138 29.5163C76.9336 28.9849 77.4776 28.7319 78.1608 29.3645C78.8312 29.997 78.4264 30.5916 78.0342 31.1102C76.5541 33.0331 74.5553 34.0705 72.2023 34.6018C67.4963 35.6771 63.1572 33.9946 60.4373 30.1994C56.5663 24.7976 59.0584 16.6886 65.5482 14.4368C66.8512 13.9814 68.1542 13.6525 69.0144 13.7663H68.9891ZM64.865 23.1151C64.865 23.4187 64.865 23.7223 64.865 24.0259C64.8903 25.7211 65.0674 25.8476 66.5855 25.0759C67.3951 24.6711 68.2174 24.2663 68.9512 23.735C70.6084 22.5205 71.4686 20.8759 71.2409 18.776C71.1017 17.4856 70.2668 16.6886 69.1915 16.1573C68.1162 15.6386 67.509 16.5115 66.8891 17.1314C65.2445 18.7886 64.9789 20.9392 64.8777 23.1277L64.865 23.1151Z" fill="white"/>
<path d="M55.163 19.1429C55.163 22.4826 55.2136 25.8097 55.1377 29.1495C55.1124 30.5537 55.378 31.7302 56.5292 32.641C56.9973 33.0205 57.478 33.4759 57.2123 34.1844C56.9214 34.9434 56.213 34.741 55.6437 34.7536C53.1642 34.7663 50.6847 34.7536 48.2178 34.7536C47.6738 34.7536 47.054 34.8802 46.763 34.2223C46.4973 33.6024 46.8262 33.1217 47.2943 32.7802C48.61 31.7934 48.8503 30.4525 48.825 28.8964C48.7491 24.6585 48.7744 20.4079 48.825 16.17C48.8377 14.7278 48.5088 13.5387 47.3955 12.5266C46.2949 11.5272 46.4467 10.8062 47.8003 10.1104C48.4202 9.78146 49.1033 9.57905 49.7612 9.31339C51.0642 8.78207 52.481 8.49111 53.4045 7.2893C53.7461 6.84653 54.2648 6.74533 54.7834 6.92244C55.3654 7.12485 55.1883 7.68147 55.1883 8.09894C55.2009 11.7929 55.1883 15.4742 55.1883 19.1682L55.163 19.1429Z" fill="white"/>
<path d="M103.425 23.9881C103.425 21.5086 103.387 19.4845 103.437 17.4731C103.463 16.4737 103.361 15.7652 102.096 15.9297C101.54 16.0056 101.097 15.7779 101.021 15.1327C100.958 14.5508 101.274 14.0954 101.767 13.9436C104.247 13.1845 105.98 11.4893 107.561 9.55381C107.966 9.06044 108.422 8.45321 109.206 8.74418C110.053 9.04779 109.75 9.83212 109.8 10.4393C109.826 10.8442 109.851 11.249 109.8 11.6538C109.623 13.1086 109.838 14.1586 111.711 13.8423C112.432 13.7285 112.849 14.1333 112.837 14.905C112.837 15.6893 112.381 16.0562 111.673 15.9297C109.902 15.6261 109.737 16.5749 109.775 18.0044C109.851 21.2809 109.8 24.57 109.8 27.8465C109.8 28.6561 109.902 29.4405 110.003 30.2375C110.167 31.4393 110.18 32.4766 111.799 31.5152C112.027 31.376 112.318 31.4519 112.432 31.7176C112.558 32.0085 112.508 32.2995 112.356 32.5905C111.559 34.1212 109.067 35.0953 106.891 34.7284C105.259 34.4501 104.082 33.1471 103.69 31.3634C103.121 28.7573 103.602 26.1387 103.412 23.9881H103.425Z" fill="white"/>
</svg>
