<svg width="49" height="49" viewBox="0 0 49 49" fill="none" xmlns="http://www.w3.org/2000/svg">
<rect width="49" height="49" rx="24.5" fill="black"/>
<path d="M17.1161 30.1161C16.628 30.6043 16.628 31.3957 17.1161 31.8839C17.6043 32.372 18.3957 32.372 18.8839 31.8839L18 31L17.1161 30.1161ZM32.25 18C32.25 17.3096 31.6904 16.75 31 16.75H19.75C19.0596 16.75 18.5 17.3096 18.5 18C18.5 18.6904 19.0596 19.25 19.75 19.25H29.75V29.25C29.75 29.9404 30.3096 30.5 31 30.5C31.6904 30.5 32.25 29.9404 32.25 29.25V18ZM18 31L18.8839 31.8839L31.8839 18.8839L31 18L30.1161 17.1161L17.1161 30.1161L18 31Z" fill="#5AF5A1"/>
</svg>
