<svg width="94" height="94" viewBox="0 0 94 94" fill="none" xmlns="http://www.w3.org/2000/svg">
<rect x="15" y="15" width="64" height="64" rx="32" fill="black"/>
<path d="M39.4716 36C40.5101 36 41.4707 36.0786 42.3483 36.3111C43.2276 36.4667 43.9476 36.7779 44.5863 37.166C45.2267 37.5547 45.7061 38.0989 46.0247 38.7987C46.3448 39.498 46.5057 40.3544 46.5057 41.2863C46.5057 42.3753 46.2652 43.3071 45.7061 44.0064C45.2267 44.7073 44.427 45.328 43.4681 45.7947C44.8268 46.1844 45.8654 46.8837 46.5057 47.8156C47.1461 48.7474 47.5443 49.915 47.5443 51.2366C47.5443 52.3256 47.3037 53.2574 46.9039 54.0353C46.5057 54.8131 45.8654 55.5124 45.1454 55.9791C44.363 56.4788 43.4985 56.8465 42.5888 57.0666C41.6299 57.3007 40.671 57.4563 39.7121 57.4563H29V36H39.4716ZM38.8312 44.7057C39.7105 44.7057 40.4305 44.4731 40.9896 44.085C41.5487 43.6969 41.7892 42.996 41.7892 42.1411C41.7892 41.6744 41.708 41.2077 41.5487 40.8981C41.3894 40.5886 41.1489 40.3529 40.8303 40.1203C40.5046 39.9434 40.1543 39.8127 39.7901 39.7321C39.3903 39.6536 38.9921 39.6536 38.5111 39.6536H33.8758V44.7073L38.8312 44.7057ZM39.0718 53.8797C39.5512 53.8797 40.0307 53.8011 40.4305 53.7241C40.8303 53.6456 41.2301 53.4916 41.5487 53.2574C41.8731 53.0286 42.1453 52.7376 42.3483 52.4026C42.5076 52.0144 42.6685 51.5477 42.6685 51.004C42.6685 49.915 42.3483 49.1371 41.7096 48.5934C41.0692 48.1267 40.19 47.8941 39.1514 47.8941H33.8758V53.8813L39.0718 53.8797ZM54.4988 53.8011C55.1381 54.4234 56.097 54.7346 57.3755 54.7346C58.2548 54.7346 59.0544 54.502 59.6931 54.1138C60.3335 53.6466 60.7333 53.1799 60.8926 52.7137H64.8095C64.1691 54.579 63.2102 55.9006 61.9328 56.7554C60.6521 57.5333 59.1341 58 57.2959 58C56.12 58.0017 54.9541 57.7906 53.8584 57.3777C52.8721 57.022 51.9929 56.4344 51.3003 55.668C50.5564 54.9535 50.0075 54.0718 49.7026 53.1018C49.3028 52.0914 49.1419 51.004 49.1419 49.7594C49.1419 48.5934 49.3028 47.506 49.7026 46.494C50.0861 45.5191 50.6557 44.6225 51.3815 43.8509C52.0999 43.1516 52.9792 42.5309 53.9381 42.1411C55.0055 41.7268 56.1456 41.5155 57.2959 41.5189C58.6546 41.5189 59.854 41.753 60.8926 42.2967C61.9328 42.8404 62.7308 43.4627 63.3695 44.3961C64.0099 45.251 64.4909 46.2614 64.8095 47.3504C64.9688 48.4379 65.0484 49.5269 64.9688 50.7699H53.379C53.379 52.0144 53.8584 53.1804 54.4988 53.8027M59.5339 45.6407C58.9748 45.097 58.0955 44.7859 57.0553 44.7859C56.4454 44.777 55.8423 44.9101 55.2968 45.174C54.8173 45.4081 54.4988 45.7193 54.1786 46.0304C53.8826 46.3297 53.6876 46.709 53.6195 47.1179C53.5383 47.5076 53.4586 47.8171 53.4586 48.1283H60.6521C60.4928 46.9623 60.093 46.186 59.5339 45.6407ZM52.4997 37.4771H61.4517V39.5766H52.5013L52.4997 37.4771Z" fill="#EFEAE7"/>
</svg>
