<svg width="94" height="94" viewBox="0 0 94 94" fill="none" xmlns="http://www.w3.org/2000/svg">
<rect x="15" y="15" width="64" height="64" rx="32" fill="black"/>
<path d="M61.9034 40.8546C61.8876 39.5949 61.6514 38.3476 61.2054 37.1691C60.8203 36.1743 60.2312 35.2708 59.4758 34.5166C58.7204 33.7625 57.8155 33.1744 56.819 32.79C55.6534 32.353 54.422 32.1168 53.1773 32.0915C51.5746 32.02 51.0665 32 46.9983 32C42.9301 32 42.4087 32 40.8177 32.0915C39.5735 32.117 38.3427 32.3532 37.1777 32.79C36.1812 33.1744 35.2762 33.7625 34.5208 34.5166C33.7654 35.2708 33.1763 36.1743 32.7913 37.1691C32.3543 38.3323 32.1183 39.561 32.0933 40.8031C32.0217 42.4047 32 42.912 32 46.9734C32 51.0348 32 51.5537 32.0933 53.1437C32.1183 54.3877 32.3532 55.6151 32.7913 56.781C33.1767 57.7757 33.7662 58.679 34.5218 59.4328C35.2775 60.1867 36.1827 60.7745 37.1794 61.1584C38.3414 61.6123 39.5723 61.8654 40.8194 61.9069C42.4237 61.9784 42.9318 62 47 62C51.0682 62 51.5896 62 53.1806 61.9069C54.4253 61.8821 55.6567 61.6464 56.8223 61.21C57.8178 60.8238 58.7218 60.2351 59.477 59.4812C60.2321 58.7273 60.8219 57.8247 61.2087 56.8309C61.6468 55.6667 61.8817 54.4393 61.9067 53.1936C61.9783 51.5936 62 51.0864 62 47.0233C61.9967 42.9619 61.9967 42.4463 61.9034 40.8546ZM46.9883 54.6538C42.7336 54.6538 39.2868 51.2128 39.2868 46.9651C39.2868 42.7174 42.7336 39.2763 46.9883 39.2763C49.0309 39.2763 50.9899 40.0864 52.4342 41.5283C53.8785 42.9702 54.6899 44.9259 54.6899 46.9651C54.6899 49.0043 53.8785 50.9599 52.4342 52.4019C50.9899 53.8438 49.0309 54.6538 46.9883 54.6538ZM54.9964 40.7848C54.7605 40.785 54.5269 40.7388 54.3089 40.6488C54.091 40.5587 53.8929 40.4267 53.7261 40.2602C53.5593 40.0936 53.427 39.8959 53.3368 39.6783C53.2467 39.4607 53.2004 39.2274 53.2006 38.9919C53.2006 38.7566 53.247 38.5235 53.3372 38.3061C53.4274 38.0887 53.5596 37.8911 53.7263 37.7247C53.893 37.5583 54.0909 37.4263 54.3087 37.3363C54.5265 37.2462 54.7599 37.1999 54.9956 37.1999C55.2313 37.1999 55.4648 37.2462 55.6825 37.3363C55.9003 37.4263 56.0982 37.5583 56.2649 37.7247C56.4316 37.8911 56.5638 38.0887 56.654 38.3061C56.7442 38.5235 56.7906 38.7566 56.7906 38.9919C56.7906 39.9831 55.9877 40.7848 54.9964 40.7848Z" fill="#EFEAE7"/>
<path d="M46.9883 51.9595C49.7513 51.9595 51.9911 49.7234 51.9911 46.9651C51.9911 44.2067 49.7513 41.9706 46.9883 41.9706C44.2254 41.9706 41.9856 44.2067 41.9856 46.9651C41.9856 49.7234 44.2254 51.9595 46.9883 51.9595Z" fill="#EFEAE7"/>
</svg>
