<svg width="94" height="94" viewBox="0 0 94 94" fill="none" xmlns="http://www.w3.org/2000/svg">
<rect x="15" y="15" width="64" height="64" rx="32" fill="black"/>
<path fill-rule="evenodd" clip-rule="evenodd" d="M43.1435 42.4535H48.7145V45.2285C49.517 43.6325 51.575 42.1985 54.6665 42.1985C60.593 42.1985 62 45.3755 62 51.2045V62H56V52.532C56 49.2125 55.1975 47.3405 53.1545 47.3405C50.321 47.3405 49.1435 49.358 49.1435 52.5305V62H43.1435V42.4535ZM32.855 61.745H38.855V42.1985H32.855V61.745ZM39.7145 35.825C39.7147 36.3279 39.615 36.8259 39.4211 37.2899C39.2272 37.7539 38.943 38.1748 38.585 38.528C38.226 38.8852 37.8001 39.1681 37.3316 39.3606C36.8632 39.5531 36.3614 39.6515 35.855 39.65C34.8344 39.6477 33.8554 39.2454 33.128 38.5295C32.7714 38.175 32.4883 37.7536 32.2947 37.2896C32.1012 36.8255 32.001 36.3278 32 35.825C32 34.8095 32.405 33.8375 33.1295 33.1205C33.8551 32.4018 34.8353 31.9991 35.8565 32C36.8795 32 37.8605 32.4035 38.585 33.1205C39.3095 33.8375 39.7145 34.8095 39.7145 35.825Z" fill="#EFEAE7"/>
</svg>
