<svg width="69" height="72" viewBox="0 0 69 72" fill="none" xmlns="http://www.w3.org/2000/svg">
<path d="M67.6464 48.7321C59.9809 35.4658 47.9556 42.0513 60.1246 27.3057C72.2937 12.5601 65.8259 5.92693 61.0828 7.59714C56.3398 9.26735 40.4816 19.0023 40.4816 19.0023C40.4816 19.0023 38.4215 -3.90347 28.1209 0.582242C17.8204 5.06796 19.8326 26.4944 18.539 27.5443C17.2454 28.5941 -2.11008 36.1817 0.189587 40.4765C2.44134 44.7713 21.6531 48.923 21.6531 48.923C21.6531 48.923 16.0956 69.2996 26.2045 71.8288C36.3135 74.358 39.9546 48.0163 44.027 48.8753C48.0993 49.7342 75.312 61.8552 67.6464 48.6367V48.7321ZM26.2045 8.93331C27.9772 5.21112 32.0975 11.6057 29.2229 24.4902C29.2229 24.4902 24.4319 12.6555 26.2045 8.93331ZM28.1689 63.0482C26.1567 62.3324 28.5042 50.8795 28.5042 50.8795C28.5042 50.8795 29.8936 47.4437 30.6601 48.7798C31.3788 50.116 30.229 63.764 28.2168 63.0482H28.1689ZM44.8893 25.7309C45.4163 25.0151 44.4582 26.0649 45.4643 25.2537C47.8597 23.3926 49.872 21.961 53.1777 20.1476C57.9208 17.523 59.3581 18.2388 57.8729 20.1476C56.3877 22.0564 51.932 23.0585 51.0218 23.8698C50.878 24.013 44.554 26.2081 44.8893 25.7309ZM62.2327 49.8297C60.6995 51.6431 57.25 47.3482 57.25 47.3482C57.25 47.3482 63.7658 48.0163 62.2327 49.8297Z" fill="white"/>
</svg>
